<?xml version="1.0" encoding="utf-8"?>
<!-- Generator: Adobe Illustrator 17.0.0, SVG Export Plug-In . SVG Version: 6.00 Build 0)  -->
<!DOCTYPE svg PUBLIC "-//W3C//DTD SVG 1.1//EN" "http://www.w3.org/Graphics/SVG/1.1/DTD/svg11.dtd">
<svg version="1.1" id="Capa_1" xmlns="http://www.w3.org/2000/svg" xmlns:xlink="http://www.w3.org/1999/xlink" x="0px" y="0px"
	 width="509.696px" height="214.209px" viewBox="0 0 509.696 214.209" enable-background="new 0 0 509.696 214.209"
	 xml:space="preserve">
<g>
	<g>
		
			<path fill="none" stroke="#1E1F1D" stroke-width="0.2" stroke-linecap="round" stroke-linejoin="round" stroke-miterlimit="10" d="
			M30.447,164.327l27.576-0.707 M437.294,154.286l42.707-1.061 M194.84,173.306H431h1.131h1.414v0.99 M357.466,14.357l3.818-0.071
			 M195.053,174.296h238.565 M195.053,174.791h239.484 M179.073,178.396h258.221 M61.7,173.306h14.141 M61.7,174.296h14.141
			 M75.841,174.296h119.212 M60.78,174.791h15.061 M75.841,174.791h119.212 M58.023,178.396h121.05 M166.487,138.589h2.121
			 M263.709,144.457h2.121 M60.78,174.791v-40.727 M61.7,174.296v-0.99 M75.841,173.306h35.707 M112.962,173.377l32.808-0.071
			 M146.972,173.306h47.939 M58.023,133.286l12.727-21.212 M60.78,133.993l11.596-19.374 M289.941,120.913l50.838-29.273
			 M291.355,123.245l52.182-30.121 M396.779,68.448l-1.343,40.091 M393.951,68.871l-1.273,40.798 M437.294,143.892v34.505
			 M434.536,145.377v29.414 M266.396,125.226v15.202 M263.709,126.357v18.172 M179.709,108.892l58.899-11.879 M181.335,111.366
			l56.353-11.313 M266.396,140.427l23.616-19.515 M265.83,144.457l25.737-21.353 M340.779,91.64l-2.616-57.343 M343.537,93.125
			l-2.545-57.838 M238.679,97.013l27.717,28.212 M237.689,100.054l25.949,26.303 M338.163,34.297l19.232-19.939 M340.991,35.357
			l20.222-21.071 M378.395,14.145l18.384,54.373 M375.496,14.145l18.525,54.727 M395.435,108.61l22.343,22.131 M392.678,109.67
			l23.333,23.192 M417.779,130.741l19.515,13.151 M416.082,132.862l18.525,12.515 M165.921,129.396l13.859-20.505 M168.608,130.175
			l12.727-18.878 M146.618,108.327l19.303,25.101 M145.275,111.155l21.212,27.434 M375.496,14.145h2.899 M70.75,112.073
			l75.868-3.747 M72.376,114.689l72.899-3.535 M58.023,178.396v-45.182 M165.921,133.357v-3.96 M168.608,138.589v-8.414"/>
	</g>
	
		<path fill="none" stroke="#1D1D1B" stroke-width="0.121" stroke-linecap="round" stroke-linejoin="round" stroke-miterlimit="10" stroke-dasharray="0.5,1" d="
		M186.002,88.245l-9.404,24.606 M244.335,94.75l-1.909,6.151 M354.496,17.398l-9.687-1.626 M383.981,16.69l-4.455,0.848
		 M176.598,112.852l1.414-17.889 M205.941,6.863l-21.919,9.545 M244.335,94.75l-17.465,4.596 M177.164,112.711l-22.485,6.081
		 M266.396,135.901l7.707-1.838 M167.548,126.922l-8.556-2.545"/>
	
		<path fill="none" stroke="#1D1D1B" stroke-width="0.072" stroke-linecap="round" stroke-linejoin="round" stroke-miterlimit="10" d="
		M61.841,134.347l11.172-18.596 M292.204,124.024l52.464-30.262 M392.89,69.013l-1.343,41.081 M433.476,145.943v27.434
		 M262.578,126.78v24.677 M182.043,112.357l55.293-11.172 M262.578,148.559l29.626-24.606 M344.668,93.125l-2.545-57.414
		 M237.406,101.185l25.172,25.596 M342.123,35.711l20.717-21.424 M374.294,14.145l18.525,54.939 M391.547,110.164l23.828,23.545
		 M415.375,133.711l18.101,12.232 M169.74,130.529l12.303-18.242 M144.78,112.215l24.959,32.384 M73.013,115.75l71.767-3.535
		 M169.74,144.599v-14.071"/>
	
		<path fill="none" stroke="#868686" stroke-width="0.072" stroke-linecap="round" stroke-linejoin="round" stroke-miterlimit="10" stroke-dasharray="0.5,1" d="
		M219.588,99.771L219.588,99.771l-0.212-0.071v0.141L219.588,99.771L219.588,99.771L219.588,99.771z M252.537,110.943
		L252.537,110.943L252.537,110.943L252.537,110.943L252.537,110.943z M252.537,110.871L252.537,110.871L252.537,110.871
		L252.537,110.871L252.537,110.871z M254.446,111.155L254.446,111.155L254.446,111.155L254.446,111.155L254.446,111.155
		L254.446,111.155L254.446,111.155L254.446,111.155L254.446,111.155z M256.285,111.366L256.285,111.366L256.285,111.366
		L256.285,111.366L256.285,111.366L256.285,111.366L256.285,111.366L256.285,111.366z M257.204,111.438L257.204,111.438
		L257.204,111.438L257.204,111.438L257.204,111.438l0.071,0.141h0.071h-0.071L257.204,111.438 M257.275,111.508L257.275,111.508
		 M258.194,111.579L258.194,111.579L258.194,111.579L258.194,111.579L258.194,111.579L258.194,111.579L258.194,111.579z
		 M259.113,111.72L259.113,111.72L259.113,111.72L259.113,111.72L259.113,111.72L259.113,111.72L259.113,111.72L259.113,111.72
		L259.113,111.72z M274.88,132.508v-0.141V132.508L274.88,132.508z M273.749,132.508v-0.141h-0.071L273.749,132.508L273.749,132.508
		L273.749,132.508z M272.547,132.508v-0.141V132.508L272.547,132.508L272.547,132.508L272.547,132.508z M271.274,132.508v-0.141
		V132.508L271.274,132.508z M270.072,132.508v-0.141V132.508L270.072,132.508z M268.87,132.508v-0.141V132.508L268.87,132.508z
		 M267.739,137.529L267.739,137.529L267.739,137.529l-0.071-0.141v0.212L267.739,137.529L267.739,137.529L267.739,137.529z
		 M267.739,132.508L267.739,132.508L267.739,132.508l-0.071-0.141L267.739,132.508L267.739,132.508L267.739,132.508z
		 M266.466,138.589v-0.141l0,0V138.589L266.466,138.589L266.466,138.589z M266.466,132.508v-0.141l0,0V132.508L266.466,132.508
		L266.466,132.508z M240.305,91.922L240.305,91.922 M228.85,98.004L228.85,98.004L228.85,98.004l-0.141-0.071v0.071h-0.071v0.071
		L228.85,98.004L228.85,98.004z M220.295,96.59L220.295,96.59l-0.141-0.071l-0.071,0.071v0.071L220.295,96.59L220.295,96.59z
		 M211.739,95.245L211.739,95.245l-0.141-0.071v0.071h-0.071l0.071,0.071L211.739,95.245L211.739,95.245z M182.82,106.206
		L182.82,106.206l-0.212-0.071v0.071l0.071,0.071L182.82,106.206L182.82,106.206z M191.729,105.852L191.729,105.852l-0.212-0.071
		v0.141L191.729,105.852L191.729,105.852z M243.699,101.822L243.699,101.822L243.699,101.822L243.699,101.822L243.699,101.822
		L243.699,101.822L243.699,101.822L243.699,101.822L243.699,101.822z M245.537,102.034L245.537,102.034L245.537,102.034
		L245.537,102.034L245.537,102.034L245.537,102.034L245.537,102.034L245.537,102.034L245.537,102.034z M247.446,102.317
		L247.446,102.317L247.446,102.317L247.446,102.317L247.446,102.317L247.446,102.317z M248.365,102.317L248.365,102.317
		L248.365,102.317L248.365,102.317L248.365,102.317L248.365,102.317L248.365,102.317l0.071,0.141L248.365,102.317L248.365,102.317
		 M249.285,102.457L249.285,102.457L249.285,102.457L249.285,102.457L249.285,102.457L249.285,102.457l0.071,0.141L249.285,102.457
		L249.285,102.457z M250.275,102.599L250.275,102.599L250.275,102.599l-0.141-0.071L250.275,102.599L250.275,102.599
		L250.275,102.599L250.275,102.599L250.275,102.599z M240.8,96.306L240.8,96.306L240.8,96.306L240.8,96.306L240.8,96.306
		L240.8,96.306L240.8,96.306L240.8,96.306z M241.719,96.448L241.719,96.448L241.719,96.448l-0.071-0.141L241.719,96.448
		L241.719,96.448L241.719,96.448L241.719,96.448L241.719,96.448L241.719,96.448L241.719,96.448z M242.638,96.59L242.638,96.59
		L242.638,96.59L242.638,96.59 M242.709,96.519L242.709,96.519l-0.141-0.071v0.071H242.709 M243.628,96.59L243.628,96.59
		L243.628,96.59L243.628,96.59L243.628,96.59L243.628,96.59L243.628,96.59 M244.547,96.731L244.547,96.731L244.547,96.731
		L244.547,96.731L244.547,96.731L244.547,96.731L244.547,96.731L244.547,96.731z M245.466,96.871L245.466,96.871L245.466,96.871
		L245.466,96.871L245.466,96.871L245.466,96.871z M251.123,102.67L251.123,102.67L251.123,102.67L251.123,102.67L251.123,102.67
		l0.141,0.071L251.123,102.67L251.123,102.67 M251.194,102.67L251.194,102.67 M252.113,102.882L252.113,102.882L252.113,102.882
		 M252.113,102.812L252.113,102.812L252.113,102.812L252.113,102.812z M260.032,111.791L260.032,111.791L260.032,111.791
		L260.032,111.791L260.032,111.791z M260.032,111.791L260.032,111.791L260.032,111.791l-0.071-0.141L260.032,111.791
		L260.032,111.791 M261.022,111.933L261.022,111.933 M261.022,112.004L261.022,112.004L261.022,112.004L261.022,112.004
		L261.022,112.004z M261.022,111.862L261.022,111.862l-0.141-0.071L261.022,111.862 M266.678,117.801L266.678,117.801
		L266.678,117.801L266.678,117.801L266.678,117.801z M266.678,117.731L266.678,117.731L266.678,117.731z M265.759,117.659
		L265.759,117.659L265.759,117.659L265.759,117.659L265.759,117.659L265.759,117.659L265.759,117.659z M273.254,125.366
		L273.254,125.366L273.254,125.366L273.254,125.366L273.254,125.366L273.254,125.366L273.254,125.366z M274.456,125.791
		L274.456,125.791L274.456,125.791L274.456,125.791z M274.456,125.72L274.456,125.72L274.456,125.72l-0.141-0.071L274.456,125.72
		 M253.032,102.952L253.032,102.952L253.032,102.952L253.032,102.952L253.032,102.952L253.032,102.952L253.032,102.952
		L253.032,102.952z M261.941,112.004L261.941,112.004L261.941,112.004L261.941,112.004L261.941,112.004L261.941,112.004
		L261.941,112.004L261.941,112.004L261.941,112.004z M267.598,117.801L267.598,117.801L267.598,117.801L267.598,117.801
		L267.598,117.801l0.071,0.141L267.598,117.801 M275.658,126.073L275.658,126.073L275.658,126.073L275.658,126.073l0.071,0.141
		L275.658,126.073L275.658,126.073 M276.153,125.791L276.153,125.791L276.153,125.791L276.153,125.791L276.153,125.791
		L276.153,125.791L276.153,125.791z M268.588,117.943L268.588,117.943L268.588,117.943L268.588,117.943L268.588,117.943
		L268.588,117.943l0.071,0.141L268.588,117.943L268.588,117.943L268.588,117.943z M259.466,108.61L259.466,108.61L259.466,108.61
		L259.466,108.61L259.466,108.61L259.466,108.61L259.466,108.61l0.071,0.141L259.466,108.61L259.466,108.61L259.466,108.61z
		 M262.86,112.145L262.86,112.145L262.86,112.145L262.86,112.145L262.86,112.145L262.86,112.145L262.86,112.145L262.86,112.145z
		 M263.78,112.215L263.78,112.215L263.78,112.215L263.78,112.215L263.78,112.215L263.78,112.215 M269.507,118.155L269.507,118.155
		L269.507,118.155z M269.507,118.155L269.507,118.155l-0.071-0.141L269.507,118.155L269.507,118.155L269.507,118.155
		 M277.143,125.862L277.143,125.862L277.143,125.862L277.143,125.862L277.143,125.862z M277.072,125.862L277.072,125.862
		L277.072,125.862L277.072,125.862L277.072,125.862L277.072,125.862L277.072,125.862z M270.426,118.155L270.426,118.155
		L270.426,118.155L270.426,118.155L270.426,118.155L270.426,118.155L270.426,118.155z M278.062,126.073L278.062,126.073
		L278.062,126.073L278.062,126.073 M278.062,126.003L278.062,126.003L278.062,126.003L278.062,126.003z M277.709,124.801
		L277.709,124.801L277.709,124.801l-0.071-0.141L277.709,124.801L277.709,124.801L277.709,124.801L277.709,124.801L277.709,124.801
		L277.709,124.801L277.709,124.801z M278.981,126.073L278.981,126.073L278.981,126.073z M278.981,126.073L278.981,126.073
		L278.981,126.073L278.981,126.073L278.981,126.073z M278.981,126.073L278.981,126.073 M279.971,129.256l-0.495-0.495
		 M344.668,27.58l1.414-11.949 M355.415,16.408h-10.889 M354.355,17.469l0.354-2.828 M157.437,112.427l19.162,1.131
		 M153.972,117.943l3.96-6.364 M56.114,163.689v-14.353 M179.78,87.185L179.78,87.185L179.78,87.185l-0.071,0.141h0.071V87.185z
		 M181.123,84.922L181.123,84.922v0.141V84.922z M182.467,82.659L182.467,82.659V82.8V82.659z M183.881,80.398L183.881,80.398
		L183.881,80.398l-0.071-0.141v0.212L183.881,80.398L183.881,80.398L183.881,80.398z M185.224,78.206v-0.141V78.206L185.224,78.206z
		 M179.78,79.266L179.78,79.266L179.78,79.266l-0.071,0.141L179.78,79.266L179.78,79.266z M181.123,77.004v-0.141V77.004
		L181.123,77.004z M182.467,74.741V74.6V74.741l-0.071,0.141L182.467,74.741L182.467,74.741z M183.81,72.478L183.81,72.478v0.141
		V72.478z M185.224,70.215L185.224,70.215L185.224,70.215L185.224,70.215L185.224,70.215v0.141V70.215z M185.224,57.913
		L185.224,57.913L185.224,57.913l-0.071,0.141L185.224,57.913L185.224,57.913L185.224,57.913z M183.81,60.105L183.81,60.105v0.141
		V60.105z M182.467,62.366L182.467,62.366v0.141V62.366z M181.123,64.629L181.123,64.629L181.123,64.629l-0.071,0.141h0.071V64.629z
		 M181.123,56.711L181.123,56.711L181.123,56.711l-0.071,0.141L181.123,56.711L181.123,56.711z M182.467,54.448L182.467,54.448
		v0.141V54.448z M182.467,42.075L182.467,42.075L182.467,42.075L182.467,42.075l-0.071,0.141h0.071V42.075z M183.739,39.812
		L183.739,39.812v0.141V39.812z M183.81,52.185L183.81,52.185L183.81,52.185l-0.071,0.141h0.071V52.185z M185.154,49.994v-0.141
		v0.212V49.994z M185.154,37.62L185.154,37.62v0.141V37.62z M186.568,55.65L186.568,55.65v0.141V55.65z M186.568,47.659
		L186.568,47.659V47.8V47.659z M186.568,35.357L186.568,35.357L186.568,35.357l-0.071,0.141L186.568,35.357L186.568,35.357z
		 M186.497,27.438L186.497,27.438v0.141V27.438z M185.154,29.701L185.154,29.701L185.154,29.701l-0.071,0.141h0.071V29.701z
		 M183.739,31.892L183.739,31.892v0.141V31.892z M183.739,20.792v-0.141v0.212V20.792z M185.154,18.599L185.154,18.599l-0.071,0.141
		L185.154,18.599L185.154,18.599z M186.497,16.478v0.141V16.478 M186.497,16.478L186.497,16.478 M186.497,16.549L186.497,16.549
		 M339.931,32.388L339.931,32.388l-0.141-0.071v0.071h-0.071v0.071 M349.9,20.297L349.9,20.297l-0.141-0.071l-0.071,0.071v0.071
		h0.071l0.071,0.071L349.9,20.297L349.9,20.297L349.9,20.297z M349.9,20.297L349.9,20.297 M58.023,149.336H54.77 M55.407,134.982
		L55.407,134.982v0.141V134.982z M55.407,145.236L55.407,145.236v0.141V145.236z M55.407,153.438L55.407,153.438v0.141V153.438z
		 M56.821,153.438L56.821,153.438v0.141V153.438z M56.821,153.438L56.821,153.438 M276.577,128.408l3.818,0.495 M279.123,129.256
		l-0.566-0.566 M269.507,126.145l-29.273-29.98 M280.466,128.832l-15.555-15.909 M279.547,128.761l-20.717-21.212 M278.557,128.62
		l-25.808-26.444 M240.871,95.952l-36.98-91 M225.598,63.427l5.727,1.485 M240.234,96.236L202.689,3.964 M205.164,6.156l-1.98-0.495
		 M214.214,25.812l-3.535-0.919 M242.78,95.317l-24.606-60.384 M243.345,95.105L228.143,57.63 M243.982,94.892l-5.798-14.424
		 M239.032,96.659L226.093,64.77 M239.881,84.499l-6.788-1.768 M386.314,26.306l-7.283-11.879 M386.456,26.801l-2.192,4.667
		 M392.607,51.62l-0.848,1.909 M389.991,41.085l-5.586-9.05 M393.668,55.862l-2.545-4.172 M255.365,111.226L255.365,111.226
		L255.365,111.226L255.365,111.226L255.365,111.226L255.365,111.226L255.365,111.226z M246.456,102.175L246.456,102.175
		L246.456,102.175L246.456,102.175 M246.456,102.175L246.456,102.175L246.456,102.175l0.141,0.071L246.456,102.175L246.456,102.175
		 M260.173,116.952v0.141V116.952L260.173,116.952L260.173,116.952h-0.141v-0.071L260.173,116.952 M266.042,123.034L266.042,123.034
		L266.042,123.034l0.071,0.141L266.042,123.034L266.042,123.034L266.042,123.034L266.042,123.034L266.042,123.034L266.042,123.034
		L266.042,123.034z M253.456,111.013L253.456,111.013L253.456,111.013L253.456,111.013z M253.527,111.084L253.527,111.084
		L253.527,111.084L253.527,111.084z M253.527,111.013L253.527,111.013 M244.618,101.963L244.618,101.963L244.618,101.963
		L244.618,101.963L244.618,101.963L244.618,101.963z M218.103,44.196l4.596,1.202 M239.669,96.448l-27.646-67.949 M267.103,125.438
		l-28.071-28.707 M268.305,125.791l-28.636-29.343 M269.648,124.164L269.648,124.164L269.648,124.164L269.648,124.164z
		 M269.719,124.164L269.719,124.164L269.719,124.164L269.719,124.164z M269.648,124.164L269.648,124.164 M262.931,117.306
		L262.931,117.306L262.931,117.306L262.931,117.306L262.931,117.306L262.931,117.306L262.931,117.306z M263.85,117.448
		L263.85,117.448L263.85,117.448L263.85,117.448L263.85,117.448L263.85,117.448L263.85,117.448L263.85,117.448 M270.85,124.589
		L270.85,124.589L270.85,124.589L270.85,124.589L270.85,124.589L270.85,124.589L270.85,124.589 M227.083,68.59L227.083,68.59
		L227.083,68.59l-0.071,0.141h-0.141V68.59l0.071-0.071L227.083,68.59L227.083,68.59L227.083,68.59z M228.143,81.105L228.143,81.105
		L228.143,81.105v0.141h-0.141v-0.141H228.143L228.143,81.105z M182.325,38.327l4.737-7.848 M246.386,96.943L246.386,96.943
		L246.386,96.943L246.386,96.943L246.386,96.943L246.386,96.943L246.386,96.943L246.386,96.943L246.386,96.943z M276.648,128.408
		l-32.737-33.515 M277.567,128.549l-30.97-31.818 M184.659,92.206L184.659,92.206l-0.071,0.141L184.659,92.206L184.659,92.206
		L184.659,92.206L184.659,92.206L184.659,92.206L184.659,92.206z M165.497,132.862v-3.677 M57.528,163.689v-14.353 M267.244,123.457
		L267.244,123.457L267.244,123.457L267.244,123.457L267.244,123.457L267.244,123.457L267.244,123.457L267.244,123.457
		 M261.022,117.094L261.022,117.094L261.022,117.094l0.141,0.071L261.022,117.094L261.022,117.094L261.022,117.094L261.022,117.094z
		 M55.831,130.175L55.831,130.175l-0.071,0.141l0,0v-0.071L55.831,130.175L55.831,130.175L55.831,130.175L55.831,130.175z
		 M55.831,130.175L55.831,130.175 M61.77,126.993l-3.96-0.354 M57.882,130.387L57.882,130.387l-0.071,0.141H57.74v-0.071
		L57.882,130.387L57.882,130.387L57.882,130.387L57.882,130.387z M56.114,131.448l4.667-8.131 M61.912,123.317L61.912,123.317
		L61.912,123.317l-0.141,0.071L61.912,123.317L61.912,123.317L61.912,123.317L61.912,123.317z M61.912,123.317L61.912,123.317
		 M57.528,132.791l9.404-16.333 M63.821,123.529L63.821,123.529L63.821,123.529l0.071-0.141h0.071 M69.336,114.054v0.141h-0.071
		L69.336,114.054L69.336,114.054L69.336,114.054L69.336,114.054z M56.821,136.256v0.141V136.256L56.821,136.256z M56.821,145.236
		v0.141V145.236L56.821,145.236z M56.821,145.236L56.821,145.236 M56.114,149.336v-17.889 M57.528,149.336v-16.545 M258.264,116.741
		L258.264,116.741L258.264,116.741l0.071,0.141L258.264,116.741L258.264,116.741L258.264,116.741L258.264,116.741z M263.638,122.256
		L263.638,122.256L263.638,122.256L263.638,122.256L263.638,122.256L263.638,122.256L263.638,122.256L263.638,122.256z
		 M186.285,71.135l39.737-6.434 M255.153,113.842l12.374,1.414 M193.921,73.963L193.921,73.963l-0.071,0.141h-0.141v-0.141h0.071
		v-0.071L193.921,73.963L193.921,73.963L193.921,73.963z M195.053,86.478L195.053,86.478L195.053,86.478l-0.071,0.141h-0.141v-0.141
		H195.053L195.053,86.478z M190.315,32.883v0.141h-0.141v-0.212L190.315,32.883L190.315,32.883z M191.376,45.327v0.141h-0.071v0.071
		l-0.071-0.071v-0.141H191.376L191.376,45.327z M218.739,69.933v0.141h-0.071v0.071h-0.071v-0.141h0.141v-0.071H218.739z
		 M219.871,82.448v0.141h-0.141v-0.141H219.871L219.871,82.448z M218.032,61.873v0.141h-0.212v-0.141h0.071v-0.071L218.032,61.873
		L218.032,61.873z M216.972,49.357v0.141h-0.141v-0.071h-0.071v-0.071l0.071-0.071L216.972,49.357L216.972,49.357z M206.224,22.064
		L206.224,22.064L206.224,22.064l-0.071,0.141h-0.141v-0.141l0.071-0.071L206.224,22.064L206.224,22.064L206.224,22.064z
		 M210.467,24.538l5.515,62.646 M196.82,10.964v0.141h-0.141v-0.212L196.82,10.964L196.82,10.964z M197.881,23.408v0.141
		l-0.071,0.071h-0.071v-0.141h0.141L197.881,23.408L197.881,23.408z M199.507,90.438l-0.071-0.566 M197.669,90.155l35.99-5.869
		 M200.356,4.671l7.353,83.858 M220.578,90.508L220.578,90.508L220.578,90.508L220.578,90.508v0.141h-0.141v-0.141H220.578
		L220.578,90.508z M228.85,89.164L228.85,89.164L228.85,89.164l-0.071,0.141h-0.141v-0.141l0.071-0.071L228.85,89.164L228.85,89.164
		z M228.85,89.164L228.85,89.164 M225.032,94.68l-0.778-8.768 M192.154,53.457L192.154,53.457l-0.071,0.141h-0.071l-0.071-0.071
		v-0.141L192.154,53.457L192.154,53.457z M193.214,65.903L193.214,65.903L193.214,65.903L193.214,65.903v0.141h-0.141v-0.141
		H193.214L193.214,65.903z M191.022,89.024l-4.172-46.879 M186.709,50.276l31.747-5.232 M233.588,96.024l-0.99-11.596l-0.354-3.818
		 M188.548,12.236v0.141h-0.212v-0.141h0.071v-0.071L188.548,12.236L188.548,12.236z M189.608,24.822v0.141h-0.141v-0.071h-0.071
		V24.82l0.071-0.071L189.608,24.822L189.608,24.822z M198.659,31.538L198.659,31.538l-0.071,0.141h-0.141v-0.141H198.659
		L198.659,31.538z M199.719,43.983L199.719,43.983L199.719,43.983l-0.071,0.141h-0.141v-0.141l0.071-0.071L199.719,43.983
		L199.719,43.983L199.719,43.983z M199.436,89.871L192.295,8.7 M187.063,29.347l23.828-3.889 M212.305,91.852v0.141h-0.141v-0.141
		H212.305L212.305,91.852L212.305,91.852z M180.487,92.842l-0.071-29.485 M215.982,87.185l0.566,6.081 M207.709,88.529l0.283,3.323
		 M163.729,128.408h-0.283v1.768 M161.396,127.487v-0.141 M202.194,72.62L202.194,72.62l-0.071,0.141h-0.141V72.62l0.071-0.071
		L202.194,72.62L202.194,72.62z M203.325,85.135v0.141h-0.071v0.071h-0.071v-0.071h-0.071v-0.141h0.071v-0.071L203.325,85.135
		L203.325,85.135L203.325,85.135z M210.467,71.275v0.141h-0.141v-0.071h-0.071v-0.071l0.071-0.071L210.467,71.275L210.467,71.275z
		 M211.598,83.792v0.141h-0.141l-0.071-0.071v-0.071h0.071V83.72L211.598,83.792L211.598,83.792z M201.558,64.559L201.558,64.559
		L201.558,64.559l-0.071,0.141h-0.141v-0.141H201.558L201.558,64.559z M200.426,52.043L200.426,52.043l-0.071,0.141h-0.141v-0.141
		h0.071v-0.071L200.426,52.043L200.426,52.043L200.426,52.043z M208.699,50.701v0.141h-0.212v-0.141l0.071-0.071L208.699,50.701
		L208.699,50.701z M209.76,63.287L209.76,63.287L209.76,63.287l-0.071,0.141h-0.071v-0.071h-0.071v-0.141L209.76,63.287
		L209.76,63.287z M206.931,30.125v0.141h-0.071v0.071h-0.071v-0.071h-0.071v-0.141h0.071v-0.071L206.931,30.125L206.931,30.125
		L206.931,30.125z M207.992,42.711L207.992,42.711L207.992,42.711l-0.071,0.141h-0.141v-0.141l0.071-0.071L207.992,42.711
		L207.992,42.711z M216.265,41.368L216.265,41.368L216.265,41.368l-0.071,0.141h-0.071l-0.071-0.071v-0.141L216.265,41.368
		L216.265,41.368z M216.265,41.368L216.265,41.368 M224.325,85.842l-2.97-33.232"/>
	
		<path fill="none" stroke="#868686" stroke-width="0.072" stroke-linecap="round" stroke-linejoin="round" stroke-miterlimit="10" stroke-dasharray="0.5,1" d="
		M240.305,91.922L240.305,91.922 M165.497,129.256l15.626-25.101 M183.739,95.812l-20.293,32.525 M156.942,121.689l12.02-19.232
		 M163.517,107.054l-8.061,12.798 M161.396,127.347L185.578,88.6 M178.649,95.457l-18.808,30.05 M158.426,123.599l16.121-25.737
		 M177.447,95.387l6.293,0.354 M207.143,10.327L207.143,10.327L207.143,10.327L207.143,10.327L207.143,10.327z M206.224,9.762
		L206.224,9.762L206.224,9.762L206.224,9.762L206.224,9.762l0.071,0.141L206.224,9.762L206.224,9.762L206.224,9.762z M205.376,9.62
		V9.479V9.62L205.376,9.62L205.376,9.62L205.376,9.62L205.376,9.62z M209.477,21.215L209.477,21.215L209.477,21.215 M209.477,21.145
		L209.477,21.145L209.477,21.145L209.477,21.145z M210.184,21.427v-0.141V21.427L210.184,21.427L210.184,21.427L210.184,21.427z
		 M211.032,21.711L211.032,21.711L211.032,21.711V21.57 M211.032,21.711l-0.071-0.141h0.071V21.711 M211.032,21.569L211.032,21.569
		 M211.81,21.782L211.81,21.782L211.81,21.782l-0.071-0.141L211.81,21.782L211.81,21.782L211.81,21.782L211.81,21.782z
		 M212.517,28.711L212.517,28.711L212.517,28.711L212.517,28.711v0.141V28.711z M213.295,28.994L213.295,28.994L213.295,28.994
		l-0.071-0.141L213.295,28.994L213.295,28.994L213.295,28.994L213.295,28.994z M214.073,29.206L214.073,29.206L214.073,29.206
		L214.073,29.206L214.073,29.206 M214.073,29.135L214.073,29.135L214.073,29.135z M214.85,29.347L214.85,29.347L214.85,29.347
		L214.85,29.347L214.85,29.347L214.85,29.347L214.85,29.347L214.85,29.347z M215.699,29.629L215.699,29.629L215.699,29.629
		l-0.071-0.141L215.699,29.629L215.699,29.629L215.699,29.629L215.699,29.629z M217.325,40.59L217.325,40.59L217.325,40.59
		 M217.325,40.519L217.325,40.519L217.325,40.519L217.325,40.519z M218.103,40.801L218.103,40.801l-0.071-0.141L218.103,40.801
		L218.103,40.801L218.103,40.801z M218.881,40.943L218.881,40.943L218.881,40.943l0.071,0.141L218.881,40.943L218.881,40.943
		L218.881,40.943z M219.659,41.155L219.659,41.155L219.659,41.155L219.659,41.155L219.659,41.155L219.659,41.155z M220.507,41.438
		L220.507,41.438l-0.071-0.141L220.507,41.438L220.507,41.438L220.507,41.438L220.507,41.438z M219.588,47.943L219.588,47.943
		l-0.071-0.141L219.588,47.943L219.588,47.943L219.588,47.943z M224.325,59.75v-0.14V59.75L224.325,59.75L224.325,59.75
		L224.325,59.75z M220.366,48.085L220.366,48.085L220.366,48.085L220.366,48.085L220.366,48.085l0.071,0.141L220.366,48.085
		L220.366,48.085L220.366,48.085z M225.174,59.892L225.174,59.892L225.174,59.892L225.174,59.892v0.141h0.071h-0.071V59.892z
		 M221.214,48.368L221.214,48.368L221.214,48.368z M221.214,48.297L221.214,48.297L221.214,48.297L221.214,48.297L221.214,48.297z
		 M225.951,60.105L225.951,60.105L225.951,60.105L225.951,60.105L225.951,60.105L225.951,60.105z M221.992,48.58L221.992,48.58
		l-0.071-0.141L221.992,48.58L221.992,48.58L221.992,48.58L221.992,48.58z M226.729,60.388v-0.141V60.388L226.729,60.388
		L226.729,60.388L226.729,60.388L226.729,60.388z M222.77,48.792L222.77,48.792L222.77,48.792L222.77,48.792L222.77,48.792
		L222.77,48.792 M222.77,48.72L222.77,48.72L222.77,48.72z M227.578,60.529L227.578,60.529L227.578,60.529L227.578,60.529
		L227.578,60.529l0.071,0.141L227.578,60.529L227.578,60.529L227.578,60.529z M228.355,60.741L228.355,60.741L228.355,60.741
		l-0.071-0.141L228.355,60.741L228.355,60.741L228.355,60.741L228.355,60.741z M223.547,49.004L223.547,49.004L223.547,49.004
		l-0.071-0.141L223.547,49.004L223.547,49.004L223.547,49.004L223.547,49.004z M224.325,49.215L224.325,49.215L224.325,49.215
		 M224.325,49.145L224.325,49.145L224.325,49.145L224.325,49.145 M229.133,60.952L229.133,60.952L229.133,60.952L229.133,60.952
		L229.133,60.952v0.141V60.952z M227.507,67.317L227.507,67.317L227.507,67.317L227.507,67.317L227.507,67.317L227.507,67.317z
		 M232.315,79.125L232.315,79.125L232.315,79.125L232.315,79.125L232.315,79.125v0.141V79.125z M228.214,67.529v-0.141V67.529
		L228.214,67.529L228.214,67.529L228.214,67.529z M233.022,79.336v-0.141V79.336L233.022,79.336L233.022,79.336L233.022,79.336z
		 M229.063,67.741L229.063,67.741L229.063,67.741L229.063,67.741v0.141h0.071L229.063,67.741L229.063,67.741L229.063,67.741z
		 M233.871,79.478L233.871,79.478L233.871,79.478L233.871,79.478v0.141V79.478z M229.84,67.952L229.84,67.952L229.84,67.952
		l-0.071-0.141L229.84,67.952L229.84,67.952L229.84,67.952L229.84,67.952z M234.648,79.761L234.648,79.761L234.648,79.761
		l-0.071-0.141L234.648,79.761L234.648,79.761L234.648,79.761L234.648,79.761z M230.618,68.094L230.618,68.094L230.618,68.094
		L230.618,68.094l0.071,0.141L230.618,68.094L230.618,68.094z M235.426,79.903L235.426,79.903L235.426,79.903L235.426,79.903
		l0.071,0.141L235.426,79.903L235.426,79.903z M231.396,68.378L231.396,68.378L231.396,68.378l-0.071-0.141L231.396,68.378
		L231.396,68.378L231.396,68.378L231.396,68.378L231.396,68.378L231.396,68.378z M236.204,80.115L236.204,80.115L236.204,80.115
		l-0.071-0.141L236.204,80.115L236.204,80.115L236.204,80.115L236.204,80.115L236.204,80.115L236.204,80.115z M232.244,68.59
		L232.244,68.59L232.244,68.59l-0.071-0.141L232.244,68.59L232.244,68.59L232.244,68.59L232.244,68.59z M236.982,80.398
		L236.982,80.398L236.982,80.398l-0.071-0.141L236.982,80.398L236.982,80.398L236.982,80.398L236.982,80.398z M237.759,80.538
		L237.759,80.538L237.759,80.538L237.759,80.538l0.071,0.141L237.759,80.538L237.759,80.538z M234.507,86.478v-0.141V86.478
		L234.507,86.478L234.507,86.478L234.507,86.478z M237.194,92.982L237.194,92.982L237.194,92.982L237.194,92.982v0.141V92.982z
		 M235.355,86.69L235.355,86.69L235.355,86.69v0.141V86.69z M237.83,92.771L237.83,92.771L237.83,92.771L237.83,92.771
		L237.83,92.771v0.141V92.771z M236.133,86.903L236.133,86.903l-0.071-0.141L236.133,86.903L236.133,86.903L236.133,86.903
		L236.133,86.903z M238.396,92.559L238.396,92.559L238.396,92.559L238.396,92.559L238.396,92.559 M238.396,92.489L238.396,92.489
		L238.396,92.489z M236.911,87.043L236.911,87.043L236.911,87.043l0.071,0.141L236.911,87.043L236.911,87.043L236.911,87.043z
		 M239.032,92.347L239.032,92.347l-0.071-0.141L239.032,92.347L239.032,92.347L239.032,92.347L239.032,92.347z M237.689,87.327
		L237.689,87.327L237.689,87.327l-0.071-0.141L237.689,87.327L237.689,87.327L237.689,87.327L237.689,87.327z M239.598,92.135
		L239.598,92.135L239.598,92.135L239.598,92.135 M239.669,92.135L239.669,92.135l-0.071-0.141L239.669,92.135 M238.537,87.538
		L238.537,87.538L238.537,87.538l-0.071-0.141L238.537,87.538L238.537,87.538L238.537,87.538L238.537,87.538z M240.234,91.852
		v-0.141V91.852 M239.244,87.68L239.244,87.68L239.244,87.68L239.244,87.68l0.071,0.141L239.244,87.68L239.244,87.68z
		 M240.871,91.569L240.871,91.569L240.871,91.569v0.141V91.569 M240.871,91.64L240.871,91.64 M240.093,87.963L240.093,87.963
		l-0.071-0.141L240.093,87.963L240.093,87.963L240.093,87.963L240.093,87.963L240.093,87.963L240.093,87.963z M241.507,91.427
		L241.507,91.427L241.507,91.427L241.507,91.427L241.507,91.427v0.141V91.427z M240.871,88.105L240.871,88.105L240.871,88.105
		L240.871,88.105L240.871,88.105v0.141V88.105z M242.143,91.287L242.143,91.287L242.143,91.287l-0.071-0.141 M242.143,91.287
		L242.143,91.287 M280.891,128.478l-9.899-10.111 M281.315,128.054l-4.242-4.313 M240.446,98.852l9.899,1.131 M275.517,128.054
		l-32.172-32.949 M271.911,126.993l-30.404-31.252 M270.638,126.569L240.87,95.953 M273.113,127.347L242.143,95.6 M274.315,127.7
		L242.78,95.316 M242.073,91.215L242.073,91.215 M242.073,91.215L242.073,91.215 M242.073,91.215L242.073,91.215 M242.073,91.145
		L242.073,91.145 M242.073,91.145L242.073,91.145 M242.073,91.215L242.073,91.215 M242.073,91.215L242.073,91.215 M264.84,117.519
		L264.84,117.519L264.84,117.519L264.84,117.519z M264.84,117.519L264.84,117.519L264.84,117.519 M272.052,125.013L272.052,125.013
		L272.052,125.013z M272.052,124.943L272.052,124.943L272.052,124.943L272.052,124.943L272.052,124.943z M262.012,117.164
		L262.012,117.164L262.012,117.164L262.012,117.164L262.012,117.164L262.012,117.164L262.012,117.164L262.012,117.164
		 M268.446,123.812L268.446,123.812L268.446,123.812L268.446,123.812L268.446,123.812l0.071,0.141h0.071h-0.071L268.446,123.812
		 M259.184,116.882L259.184,116.882L259.184,116.882l-0.071-0.141L259.184,116.882L259.184,116.882L259.184,116.882L259.184,116.882
		L259.184,116.882L259.184,116.882L259.184,116.882z M264.84,122.61L264.84,122.61L264.84,122.61l0.071,0.141L264.84,122.61
		 M264.84,122.68L264.84,122.68 M159.063,116.175L159.063,116.175l0.071-0.141 M156.305,120.629L156.305,120.629L156.305,120.629
		L156.305,120.629L156.305,120.629L156.305,120.629L156.305,120.629L156.305,120.629z M161.679,116.245L161.679,116.245
		L161.679,116.245L161.679,116.245l-0.141,0.071v0.071h0.071L161.679,116.245L161.679,116.245L161.679,116.245z M158.426,121.549
		L158.426,121.549L158.426,121.549L158.426,121.549l-0.071,0.141L158.426,121.549L158.426,121.549L158.426,121.549z
		 M164.224,116.457L164.224,116.457L164.224,116.457L164.224,116.457L164.224,116.457L164.224,116.457L164.224,116.457z
		 M160.548,122.538L160.548,122.538L160.548,122.538L160.548,122.538l-0.141,0.071L160.548,122.538L160.548,122.538L160.548,122.538
		z M166.77,116.529L166.77,116.529L166.77,116.529L166.77,116.529L166.77,116.529l-0.071,0.141L166.77,116.529L166.77,116.529z
		 M162.527,123.457L162.527,123.457L162.527,123.457L162.527,123.457L162.527,123.457L162.527,123.457L162.527,123.457
		L162.527,123.457z M163.447,109.245v-0.071V109.245L163.447,109.245L163.447,109.245l-0.141,0.071L163.447,109.245L163.447,109.245
		L163.447,109.245z M163.729,108.75L163.729,108.75L163.729,108.75L163.729,108.75L163.729,108.75L163.729,108.75l-0.071,0.141
		L163.729,108.75L163.729,108.75L163.729,108.75z M169.245,104.226L169.245,104.226L169.245,104.226L169.245,104.226h-0.141v0.071
		L169.245,104.226L169.245,104.226L169.245,104.226z M165.992,109.387L165.992,109.387L165.992,109.387L165.992,109.387
		L165.992,109.387L165.992,109.387L165.992,109.387z M168.538,109.599L168.538,109.599l0.071-0.141L168.538,109.599L168.538,109.599
		L168.538,109.599L168.538,109.599L168.538,109.599L168.538,109.599z M175.184,98.852L175.184,98.852L175.184,98.852l0.071-0.141
		h-0.071V98.852L175.184,98.852L175.184,98.852L175.184,98.852L175.184,98.852z M177.729,98.994L177.729,98.994L177.729,98.994
		L177.729,98.994L177.729,98.994L177.729,98.994L177.729,98.994L177.729,98.994z M171.083,109.67L171.083,109.67L171.083,109.67
		L171.083,109.67l-0.141,0.071v0.071h0.071L171.083,109.67L171.083,109.67z M182.113,92.135L182.113,92.135L182.113,92.135
		L182.113,92.135l-0.141,0.071L182.113,92.135L182.113,92.135z M180.346,99.135v-0.141V99.135L180.346,99.135L180.346,99.135h-0.141
		v0.071L180.346,99.135L180.346,99.135L180.346,99.135z M173.628,109.882L173.628,109.882L173.628,109.882L173.628,109.882
		L173.628,109.882L173.628,109.882z M169.386,116.741L169.386,116.741L169.386,116.741L169.386,116.741l-0.141,0.071
		L169.386,116.741L169.386,116.741L169.386,116.741z M179.356,105.004L179.356,105.004L179.356,105.004L179.356,105.004
		L179.356,105.004L179.356,105.004L179.356,105.004L179.356,105.004z M171.931,116.882v-0.141V116.882L171.931,116.882
		L171.931,116.882L171.931,116.882L171.931,116.882z M176.174,110.024L176.174,110.024L176.174,110.024l0.071-0.141h-0.071V110.024
		L176.174,110.024L176.174,110.024L176.174,110.024z M178.79,110.164L178.79,110.164L178.79,110.164L178.79,110.164h-0.141v0.071
		L178.79,110.164L178.79,110.164z M185.224,86.336v-0.141V86.336L185.224,86.336z M183.881,89.871L183.881,89.871L183.881,89.871
		l-0.071,0.141h0.071V89.871z M166.628,125.296L166.628,125.296L166.628,125.296L166.628,125.296L166.628,125.296L166.628,125.296z
		 M164.649,124.377L164.649,124.377L164.649,124.377L164.649,124.377h-0.141v0.071L164.649,124.377L164.649,124.377L164.649,124.377
		z M153.972,115.822L153.972,115.822L153.972,115.822L153.972,115.822l-0.071,0.141L153.972,115.822L153.972,115.822
		L153.972,115.822z M156.517,115.963L156.517,115.963L156.517,115.963L156.517,115.963L156.517,115.963L156.517,115.963
		L156.517,115.963L156.517,115.963z M159.134,116.034L159.134,116.034l-0.071,0.141h-0.071v0.071h0.071v-0.071 M159.134,116.034
		L159.134,116.034 M179.073,94.043v-9.687 M186.285,72.336l-7.566,12.586 M185.931,88.317L185.79,13.65 M186.709,51.408
		l-6.222,10.252 M184.517,89.519l-0.071-73.747 M181.83,91.78l-0.071-45.818 M240.234,91.922L240.234,91.922 M183.174,90.579
		l-0.071-13.01 M187.204,11.599v12.727 M183.174,77.569l-0.071-49.141 M339.719,32.457L339.719,32.457L339.719,32.457l0.141,0.071
		l0.071-0.071v-0.071 M391.122,47.306L391.122,47.306l-0.071,0.141h0.071v0.071h0.071L391.122,47.306L391.122,47.306L391.122,47.306
		z M387.375,32.245h-0.141v0.071L387.375,32.245l-0.071,0.141h0.071V32.245z M383.415,25.883L383.415,25.883L383.415,25.883
		l-0.071,0.141h0.141L383.415,25.883L383.415,25.883z M383.769,17.538L383.769,17.538l-0.141-0.071v0.071H383.769l-0.071,0.141
		h0.071V17.538z M273.113,128.408v-1.131 M183.739,95.741L183.739,95.741 M242.073,95.599l-33.869-83.434 M214.638,101.892
		l1.909-8.626 M225.032,94.68l-1.131,5.374 M207.992,91.852l-2.616,11.879 M199.507,90.438l-3.323,15.131 M271.911,128.408v-1.414
		 M181.265,103.731l29.838-1.131 M185.366,90.579l12.303-0.495 M233.588,96.024l-0.495,2.121 M271.911,135.901v-7.424
		 M274.315,133.922v-6.152 M270.638,136.892v-10.323 M275.517,132.933v-4.525 M241.507,95.741L205.022,6.014 M273.113,134.913
		v-6.505 M186.921,107.408l4.101-18.384 M267.103,125.438v14.495 M268.305,138.871V125.79 M266.396,128.408h9.121v-0.354
		 M276.648,131.871v-3.394 M277.921,130.882v-2.05 M279.123,129.892v-0.707 M269.507,137.882v-11.737 M191.729,105.852
		L191.729,105.852 M210.749,100.054L210.749,100.054l-0.212-0.071v0.141h0.071L210.749,100.054L210.749,100.054z M201.84,100.408
		L201.84,100.408l-0.212-0.071v0.071l0.071,0.071L201.84,100.408L201.84,100.408z M192.931,100.689L192.931,100.689l-0.141-0.071
		v0.071h-0.071v0.071L192.931,100.689L192.931,100.689z M184.022,101.043L184.022,101.043L184.022,101.043l-0.141-0.071v0.071
		h-0.071v0.071L184.022,101.043L184.022,101.043z M185.719,93.125L185.719,93.125l-0.141-0.071l-0.071,0.071v0.071L185.719,93.125
		L185.719,93.125z M194.628,92.771L194.628,92.771l-0.141-0.071l-0.071,0.071v0.071L194.628,92.771L194.628,92.771z M203.537,92.489
		L203.537,92.489l-0.141-0.071v0.071h-0.071v0.071L203.537,92.489L203.537,92.489z"/>
	
		<path fill="none" stroke="#1D1D1B" stroke-width="0.072" stroke-linecap="round" stroke-linejoin="round" stroke-miterlimit="10" d="
		M229.77,144.599l32.525-7.99 M428.173,173.306v-25.313l-90.788-15.131v40.444 M169.74,144.599l-4.737-4.242 M337.315,132.862
		l-66.747,9.121 M415.375,133.711l12.798,14.353l5.303-2.05 M171.861,127.418L229.77,144.6v28.707 M239.103,102.952l-9.333,41.646
		 M428.173,147.993l-59.464-53.737l-31.324,38.535 M143.578,112.286l13.081,17.889l8.273,10.111"/>
	
		<path fill="none" stroke="#B2B2B2" stroke-width="0.072" stroke-linecap="round" stroke-linejoin="round" stroke-miterlimit="10" d="
		M368.638,94.327l-21.848-0.495 M345.587,93.761h-0.495 M344.951,93.761h-0.283 M345.658,93.69h-0.495 M344.951,93.69h-0.141
		 M344.739,93.69L344.739,93.69 M368.638,93.69l-23.97-0.495 M346.011,93.196h-1.202 M345.941,93.266h-1.131 M345.587,93.761h-0.495
		 M344.951,93.761h-0.283"/>
	
		<path fill="none" stroke="#1D1D1B" stroke-width="0.072" stroke-linecap="round" stroke-linejoin="round" stroke-miterlimit="10" d="
		M391.547,110.164l-22.909-15.838l-0.495-76.01 M63.326,131.943l93.404-1.768"/>
	
		<line fill="none" stroke="#868686" stroke-width="0.072" stroke-linecap="round" stroke-linejoin="round" stroke-miterlimit="10" stroke-dasharray="0.5,1" x1="212.022" y1="28.499" x2="212.022" y2="28.427"/>
	
		<path fill="none" stroke="#1D1D1B" stroke-width="0.072" stroke-linecap="round" stroke-linejoin="round" stroke-miterlimit="10" d="
		M360.223,16.974l7.99,1.343l7.071-1.414 M262.578,173.306v-24.747"/>
	
		<line fill="none" stroke="#868686" stroke-width="0.072" stroke-linecap="round" stroke-linejoin="round" stroke-miterlimit="10" stroke-dasharray="0.5,1" x1="178.649" y1="95.457" x2="179.992" y2="93.266"/>
	
		<path fill="none" stroke="#1D1D1B" stroke-width="0.097" stroke-linecap="round" stroke-linejoin="round" stroke-miterlimit="10" d="
		M54.77,130.175v33.586 M281.668,127.771l-37.262-33.02 M152.558,116.105l24.889-20.717 M344.809,15.771l-6.576,18.525
		 M184.022,16.408l-6.01,78.555 M177.447,95.387l0.566-0.495l6.505-5.444l1.061-0.848 M202.406,3.61l-1.414,0.707l-0.071,0.071
		 M188.83,10.469l-0.354,0.141l-1.061,0.495 M205.941,6.863l-0.495-0.424l-0.283-0.283 M185.79,13.65l-1.273,1.909l-0.141,0.141
		 M354.708,14.64l-8.061,0.919l-0.566,0.071 M383.981,16.69l-0.778-0.354l-4.101-1.909 M232.244,80.68l-6.151-15.838 M185.578,88.67
		l0.354-0.283l0.141-0.141 M238.679,97.013l-0.141-0.141 M275.517,128.054l1.061,0.354 M205.941,6.863l38.464,87.959
		 M270.638,126.569l1.202,0.424 M183.739,95.812l-2.404,7.919 M276.648,128.478l1.202,0.354 M396.779,68.448L383.981,16.62
		 M165.921,129.396l-4.737-2.121 M218.103,44.196l-6.081-15.697 M192.295,8.701l-3.535,1.768 M200.921,4.317L200.355,4.6
		 M205.164,6.156l-0.141-0.141l-2.333-2.05l-0.354-0.354 M200.851,4.105l0.212,0.141 M187.416,11.176l-1.626,2.475 M184.447,15.771
		l-0.424,0.636 M200.921,4.317l-0.141-0.212l-12.162,6.151l-0.212,0.424 M188.83,10.469l-0.141-0.212 M184.517,15.56l-0.778,0.354
		l3.394-5.232l15.061-7.495l3.465,3.182 M344.739,14.994l12.869-1.485 M205.659,6.297l-0.212,0.141 M378.254,13.297l5.869,2.687
		l-1.061,0.212 M201.84,2.267l3.535,3.253 M384.122,16.055v-1.273 M344.739,14.994v-1.343 M378.183,12.024l5.939,2.687
		 M201.84,2.267l-14.99,7.566l-3.394,5.232 M379.031,14.427l-0.707-0.283 M357.466,14.357l-2.758,0.283 M346.082,15.629
		l-1.273,0.141 M187.204,10.681l-0.354-0.778 M183.739,15.913l-0.354-0.778 M202.194,3.115l-0.424-0.848 M205.659,6.297
		l-0.354-0.778 M181.265,103.731l-0.141,0.424l-1.414,4.737 M244.335,94.75l-5.869,2.05 M276.577,128.408l0.141,0.071
		 M277.921,128.832l1.202,0.424 M274.315,127.7l1.202,0.354 M279.123,129.256l0.636,0.141 M274.315,127.7l-1.202-0.424l-1.202-0.354
		 M226.093,64.842l-0.071-0.141 M183.739,95.741l1.626-5.162l0.707-2.404 M58.023,133.286l-3.253-3.111l15.98-18.101
		 M186.709,50.276v1.131 M266.396,125.226l4.313,1.343 M210.467,24.538l0.141,0.354l0.212,0.566 M238.466,96.871l-47.444-7.778
		l-4.949-0.778l0.707-36.838 M187.063,29.347v1.131 M210.467,24.538l-7.283-18.879l-0.778-2.05 M186.709,50.276l0.354-19.798
		 M200.356,4.671l-8.061,4.03 M238.466,96.871l-5.444-14.141l-0.778-2.051 M221.355,52.61l-3.253-8.414 M212.022,28.499l-1.131-3.04
		 M187.416,11.176l-0.354,18.172 M221.355,52.61l4.242,10.818l0.495,1.273"/>
	
		<path fill="none" stroke="#1D1D1B" stroke-width="0.072" stroke-linecap="round" stroke-linejoin="round" stroke-miterlimit="10" d="
		M61.7,173.306L61.7,173.306 M263.709,126.357L263.709,126.357 M61.841,173.236v-38.818"/>
	
		<path fill="none" stroke="#1D1D1B" stroke-width="0.097" stroke-linecap="round" stroke-linejoin="round" stroke-miterlimit="10" d="
		M358.314,12.236L358.314,12.236 M358.88,13.226L358.88,13.226 M357.89,12.731l19.798-0.141 M357.89,12.236h0.354v0.071
		 M358.385,12.236L358.385,12.236 M357.607,13.508L357.607,13.508 M358.102,13.226h0.707 M358.102,13.368l0.636-0.071
		 M357.607,12.236v1.273V12.236 M358.88,14.215v-0.99V14.215 M358.739,13.297v0.99V13.297z M374.365,14.357L374.365,14.357
		 M377.193,13.155L377.193,13.155 M358.88,13.226h-0.141 M358.385,12.236h-0.778 M358.385,12.166l-0.778,0.071 M358.88,14.215
		l2.333-0.071 M358.809,13.226v1.061 M358.102,13.226v0.141 M377.193,14.004h-2.899H377.193 M377.688,12.59L377.688,12.59
		 M377.688,12.094L377.688,12.094L377.688,12.094 M377.193,12.59L377.193,12.59 M377.193,12.094L377.193,12.094 M377.688,12.59
		L377.688,12.59 M378.183,12.094h-0.99v0.071 M377.193,13.155v0.848 M377.122,13.155l0.071,0.778 M378.183,12.094v1.273
		 M378.183,12.024l0.071,1.273 M377.122,12.094L377.122,12.094 M378.183,13.368L378.183,13.368 M377.688,13.155h-0.495
		 M377.688,12.661h-0.495 M377.688,13.226h-0.354 M377.688,12.661v0.495 M377.688,12.094l0.071,1.061 M377.688,12.166v0.495
		 M377.476,12.236v0.212 M378.112,12.094l0.071,1.061 M377.193,12.661v0.495 M378.112,12.094h-0.495 M378.183,13.155h-0.495
		 M377.335,13.226v0.919V13.226z M377.122,12.094h1.061 M377.122,12.024h1.061 M377.193,14.004h-1.697 M377.193,13.155v0.99
		 M375.496,14.004v0.141 M377.688,13.155L377.688,13.155 M374.294,14.004l0.141,0.354L374.294,14.004z M377.193,13.155
		L377.193,13.155"/>
	
		<path fill="none" stroke="#1D1D1B" stroke-width="0.097" stroke-linecap="round" stroke-linejoin="round" stroke-miterlimit="10" d="
		M357.961,12.661l19.727-0.141L357.961,12.661z"/>
	
		<path fill="none" stroke="#1D1D1B" stroke-width="0.097" stroke-linecap="round" stroke-linejoin="round" stroke-miterlimit="10" d="
		M357.961,12.59l19.727-0.141 M357.89,12.236l19.798-0.141"/>
	
		<polyline fill="none" stroke="#1D1D1B" stroke-width="0.097" stroke-linecap="round" stroke-linejoin="round" stroke-miterlimit="10" points="
		377.688,12.166 357.89,12.306 377.688,12.236 	"/>
	
		<path fill="none" stroke="#1D1D1B" stroke-width="0.097" stroke-linecap="round" stroke-linejoin="round" stroke-miterlimit="10" d="
		M362.698,14.427L362.698,14.427 M362.91,14.145l-0.212,0.212L362.91,14.145 M362.91,14.145h-4.03H362.91 M357.89,12.378
		l19.798-0.141"/>
	
		<polyline fill="none" stroke="#1D1D1B" stroke-width="0.097" stroke-linecap="round" stroke-linejoin="round" stroke-miterlimit="10" points="
		358.951,13.085 357.749,13.085 357.749,12.236 	"/>
	
		<path fill="none" stroke="#1D1D1B" stroke-width="0.097" stroke-linecap="round" stroke-linejoin="round" stroke-miterlimit="10" d="
		M357.89,12.236l0.071,0.495 M358.102,12.378v0.212 M357.89,12.236L357.89,12.236"/>
	
		<polyline fill="none" stroke="#1D1D1B" stroke-width="0.097" stroke-linecap="round" stroke-linejoin="round" stroke-miterlimit="10" points="
		357.607,12.236 357.607,13.226 358.951,13.155 358.951,13.085 	"/>
	
		<line fill="none" stroke="#1D1D1B" stroke-width="0.097" stroke-linecap="round" stroke-linejoin="round" stroke-miterlimit="10" x1="357.89" y1="12.236" x2="357.89" y2="12.731"/>
	
		<path fill="none" stroke="#1D1D1B" stroke-width="0.072" stroke-linecap="round" stroke-linejoin="round" stroke-miterlimit="10" d="
		M362.84,14.287L362.84,14.287 M377.688,12.094l-0.141,0.071 M377.759,13.155L377.759,13.155"/>
	
		<line fill="none" stroke="#1D1D1B" stroke-width="0.097" stroke-linecap="round" stroke-linejoin="round" stroke-miterlimit="10" x1="361.284" y1="14.145" x2="361.284" y2="14.287"/>
	
		<path fill="none" stroke="#1D1D1B" stroke-width="0.072" stroke-linecap="round" stroke-linejoin="round" stroke-miterlimit="10" d="
		M375.496,14.145h-1.131 M362.84,14.287h-1.556"/>
	
		<path fill="none" stroke="#1D1D1B" stroke-width="0.097" stroke-linecap="round" stroke-linejoin="round" stroke-miterlimit="10" d="
		M377.688,13.155l5.869,2.687 M378.183,13.368l5.869,2.687 M377.759,13.155l5.869,2.687 M377.688,13.226l5.869,2.687
		 M377.335,13.226l5.515,2.545 M384.122,16.055l-1.061,0.212 M383.557,15.913l-0.778,0.141 M382.85,16.125v-0.424"/>
	
		<line fill="none" stroke="#1D1D1B" stroke-width="0.072" stroke-linecap="round" stroke-linejoin="round" stroke-miterlimit="10" x1="383.557" y1="15.771" x2="383.557" y2="15.842"/>
	
		<path fill="none" stroke="#1D1D1B" stroke-width="0.097" stroke-linecap="round" stroke-linejoin="round" stroke-miterlimit="10" d="
		M347.426,15.489v-0.848 M347.426,14.922l-0.99-0.141 M344.739,14.994l2.687,0.424l-2.545-0.495 M383.557,15.913L383.557,15.913
		 M344.88,14.922l12.798-1.414 M357.607,13.297l0.495-0.071 M357.607,13.368h0.495 M357.607,13.438l1.061-0.141 M358.173,13.226
		l0.778-0.141 M357.607,13.226L357.607,13.226 M357.749,12.801l0.141-0.071 M344.739,13.65l12.869-1.414 M357.749,12.236h0.141
		 M358.314,12.236L358.314,12.236 M357.749,12.801l0.212-0.071"/>
	
		<polyline fill="none" stroke="#1D1D1B" stroke-width="0.072" stroke-linecap="round" stroke-linejoin="round" stroke-miterlimit="10" points="
		360.011,17.257 368.213,18.599 375.355,17.185 	"/>
	
		<path fill="none" stroke="#B2B2B2" stroke-width="0.072" stroke-linecap="round" stroke-linejoin="round" stroke-miterlimit="10" d="
		M346.153,93.903L346.153,93.903 M350.254,102.599L350.254,102.599 M389.85,101.538L389.85,101.538 M346.153,93.903L346.153,93.903
		 M346.436,93.549l-0.636,0.778l-0.071-0.071L346.436,93.549L346.436,93.549z M344.951,93.549L344.951,93.549l-0.071,0.141h0.071
		V93.549z M344.668,93.125h-0.212l0.071,0.636h0.212 M344.668,93.125v0.636 M344.668,93.125h-0.212v0.071L344.668,93.125
		L344.668,93.125z M344.88,93.69v-0.14h-0.071v-0.071h0.071v-0.141l-0.212,0.071v-0.283h-0.071v0.495h0.283V93.69L344.88,93.69z
		 M344.809,93.125L344.809,93.125l-0.071,0.212h0.071V93.125z M344.88,93.69h-0.141H344.88z M345.092,93.408l0.071,0.212
		L345.092,93.408l-0.212,0.071v-0.141h0.212V93.408z M345.163,93.903h-0.141l-0.071-0.424h0.141 M345.163,93.903l1.061-0.071v0.141
		l-1.131,0.071L345.163,93.903L345.163,93.903l-0.071-0.424 M346.011,93.196l0.424,0.283l-0.636,0.778l-0.354-0.283L346.011,93.196z
		 M346.436,93.549l0.778,0.566l-0.636,0.778l-0.707-0.566L346.436,93.549z"/>
	
		<path fill="none" stroke="#1D1D1B" stroke-width="0.072" stroke-linecap="round" stroke-linejoin="round" stroke-miterlimit="10" d="
		M274.315,172.387"/>
	
		<path fill="none" stroke="#1D1D1B" stroke-width="0.072" stroke-linecap="round" stroke-linejoin="round" stroke-miterlimit="10" d="
		M122.72,173.236L122.72,173.236 M123.002,173.236L123.002,173.236 M123.002,173.306L123.002,173.306L123.002,173.306
		 M122.72,173.306L122.72,173.306 M122.72,173.306L122.72,173.306 M122.649,173.306L122.649,173.306 M195.053,173.306
		L195.053,173.306 M195.053,174.296L195.053,174.296"/>
	
		<path fill="none" stroke="#1D1D1B" stroke-width="0.072" stroke-linecap="round" stroke-linejoin="round" stroke-miterlimit="10" d="
		M196.82,142.478L196.82,142.478 M196.891,142.478h0.424"/>
	
		<path fill="none" stroke="#1D1D1B" stroke-width="0.072" stroke-linecap="round" stroke-linejoin="round" stroke-miterlimit="10" d="
		M85.74,161.003L85.74,161.003 M85.74,161.64L85.74,161.64 M84.821,161.003L84.821,161.003 M84.821,161.569L84.821,161.569
		 M83.124,143.822v6.434 M147.184,143.68L147.184,143.68 M111.265,173.377v-30.828 M68.841,143.822v-1.202 M161.184,172.741v-22.98
		 M147.043,143.68L147.043,143.68 M85.669,161.569L85.669,161.569 M85.669,161.427v0.071 M85.669,161.286v0.141 M85.669,161.215
		v0.141 M85.669,161.073v0.071 M85.669,161.003L85.669,161.003 M85.669,161.003L85.669,161.003 M85.669,161.003L85.669,161.003
		 M85.669,161.073L85.669,161.073 M85.74,161.215v-0.071 M85.74,161.357v-0.141 M85.74,161.427v-0.141 M85.669,161.569v-0.071
		 M85.669,161.64L85.669,161.64 M85.669,161.64L85.669,161.64 M85.669,161.64L85.669,161.64 M84.75,161.498L84.75,161.498
		 M84.75,161.427v0.071 M84.75,161.286v0.141 M84.75,161.145v0.141 M84.75,161.073v0.071 M84.75,161.003L84.75,161.003
		 M84.821,161.003L84.821,161.003 M84.821,161.003L84.821,161.003 M84.821,161.073L84.821,161.073 M84.821,161.145v-0.071
		 M84.821,161.286v-0.141 M84.821,161.427v-0.141 M84.821,161.498v-0.071 M84.821,161.569L84.821,161.569 M84.821,161.569
		L84.821,161.569 M84.75,161.569L84.75,161.569 M160.901,173.236v-23.475 M160.901,149.689L160.901,149.689 M159.487,149.689v23.05
		 M160.901,149.689v23.616 M163.093,173.236v-24.111 M163.093,149.194L163.093,149.194 M163.022,173.236v-24.111 M160.831,149.689
		v23.616 M159.204,149.689v22.98 M159.204,149.62L159.204,149.62 M147.184,148.982h12.656 M159.841,148.982L159.841,148.982
		 M158.992,173.306v-24.182 M158.285,149.549v23.05 M159.134,149.689v23.05 M159.204,149.689v23.05 M159.841,149.054
		L159.841,149.054 M158.285,172.67v-23.05 M158.921,173.236v-24.111 M147.467,172.67h10.818 M158.285,172.67h-10.818"/>
	
		<line fill="none" stroke="#1D1D1B" stroke-width="0.072" stroke-linecap="round" stroke-linejoin="round" stroke-miterlimit="10" x1="170.8" y1="142.478" x2="173.982" y2="142.478"/>
	
		<path fill="none" stroke="#1D1D1B" stroke-width="0.072" stroke-linecap="round" stroke-linejoin="round" stroke-miterlimit="10" d="
		M198.022,142.478h-0.212 M170.093,142.478L170.093,142.478 M163.305,142.478L163.305,142.478 M159.841,149.054L159.841,149.054
		 M159.841,149.125v-0.071 M198.022,142.478L198.022,142.478 M170.164,142.478h0.566 M159.841,142.407l7.495,0.071 M198.022,143.61
		L198.022,143.61 M83.902,150.256l-0.848-0.071 M146.972,143.68L146.972,143.68 M147.184,143.68h-0.212 M146.972,149.054
		L146.972,149.054 M83.902,173.306v-23.121 M161.184,149.761h1.626 M160.901,149.761h0.283 M160.901,149.689L160.901,149.689
		 M159.063,149.194v24.111 M159.063,149.194L159.063,149.194 M159.487,149.689h-0.283 M160.618,149.761h-1.131 M159.841,149.054
		L159.841,149.054 M159.841,149.125v-0.141 M147.467,149.125h-0.283 M147.467,172.67v-23.05 M158.992,149.194L158.992,149.194
		 M158.992,149.125L158.992,149.125 M158.285,149.549L158.285,149.549 M147.467,149.549h10.818"/>
	
		<path fill="none" stroke="#1D1D1B" stroke-width="0.072" stroke-linecap="round" stroke-linejoin="round" stroke-miterlimit="10" d="
		M196.891,142.478L196.891,142.478 M196.82,142.478L196.82,142.478"/>
	
		<path fill="none" stroke="#1D1D1B" stroke-width="0.072" stroke-linecap="round" stroke-linejoin="round" stroke-miterlimit="10" d="
		M194.063,142.478L194.063,142.478 M193.638,142.478L193.638,142.478"/>
	
		<path fill="none" stroke="#1D1D1B" stroke-width="0.072" stroke-linecap="round" stroke-linejoin="round" stroke-miterlimit="10" d="
		M173.982,142.478h0.495 M174.477,142.478L174.477,142.478 M173.982,142.478L173.982,142.478"/>
	
		<path fill="none" stroke="#1D1D1B" stroke-width="0.072" stroke-linecap="round" stroke-linejoin="round" stroke-miterlimit="10" d="
		M84.821,161.569v11.737 M85.74,161.64v11.737 M84.821,161.569v11.737 M162.81,149.761L162.81,149.761 M162.81,172.741v-23.05
		 M160.901,149.689L160.901,149.689 M162.81,149.689h-1.98 M160.618,149.689h-1.485 M159.063,149.194L159.063,149.194
		 M159.063,149.125L159.063,149.125"/>
	
		<line fill="none" stroke="#1E1F1D" stroke-width="0.2" stroke-linecap="round" stroke-linejoin="round" stroke-miterlimit="10" x1="85.74" y1="161.003" x2="85.74" y2="173.306"/>
	
		<path fill="none" stroke="#1D1D1B" stroke-width="0.072" stroke-linecap="round" stroke-linejoin="round" stroke-miterlimit="10" d="
		M164.507,142.336v-0.071 M164.507,142.407v-0.071 M169.952,142.478h0.212 M84.821,150.256l-0.919-0.071 M147.184,173.306v-23.757"
		/>
	
		<line fill="none" stroke="#1D1D1B" stroke-width="0.072" stroke-linecap="round" stroke-linejoin="round" stroke-miterlimit="10" x1="197.386" y1="142.478" x2="197.315" y2="142.478"/>
	
		<path fill="none" stroke="#1D1D1B" stroke-width="0.072" stroke-linecap="round" stroke-linejoin="round" stroke-miterlimit="10" d="
		M84.821,161.003v0.636 M84.821,150.256v10.677 M160.618,172.67L160.618,172.67 M158.285,149.125h-10.818 M158.921,149.125h-0.636
		 M158.992,149.125h-0.141 M174.477,142.478h8.838"/>
	
		<line fill="none" stroke="#1E1F1D" stroke-width="0.2" stroke-linecap="round" stroke-linejoin="round" stroke-miterlimit="10" x1="85.74" y1="150.327" x2="85.74" y2="161.003"/>
	
		<path fill="none" stroke="#1D1D1B" stroke-width="0.072" stroke-linecap="round" stroke-linejoin="round" stroke-miterlimit="10" d="
		M84.821,161.003v0.636 M84.821,150.256v10.677 M85.74,161.003v0.636"/>
	
		<line fill="none" stroke="#1E1F1D" stroke-width="0.2" stroke-linecap="round" stroke-linejoin="round" stroke-miterlimit="10" x1="85.74" y1="150.327" x2="85.74" y2="161.003"/>
	
		<line fill="none" stroke="#1D1D1B" stroke-width="0.072" stroke-linecap="round" stroke-linejoin="round" stroke-miterlimit="10" x1="85.74" y1="161.003" x2="85.74" y2="161.64"/>
	
		<path fill="none" stroke="#1D1D1B" stroke-width="0.072" stroke-linecap="round" stroke-linejoin="round" stroke-miterlimit="10" d="
		M84.821,150.256L84.821,150.256 M85.528,150.327h-0.707 M147.184,149.549v-0.424"/>
	
		<path fill="none" stroke="#1D1D1B" stroke-width="0.072" stroke-linecap="round" stroke-linejoin="round" stroke-miterlimit="10" d="
		M164.507,139.791v2.475 M164.507,142.054L164.507,142.054 M164.507,142.054L164.507,142.054 M164.507,142.054L164.507,142.054
		 M147.184,148.982v-5.303 M147.184,149.125v-0.141 M160.618,149.761L160.618,149.761 M160.618,172.741v-23.05 M183.245,142.478
		h0.495"/>
	
		<line fill="none" stroke="#1D1D1B" stroke-width="0.072" stroke-linecap="round" stroke-linejoin="round" stroke-miterlimit="10" x1="183.739" y1="142.478" x2="193.638" y2="142.478"/>
	
		<path fill="none" stroke="#1D1D1B" stroke-width="0.072" stroke-linecap="round" stroke-linejoin="round" stroke-miterlimit="10" d="
		M158.992,149.125L158.992,149.125 M194.063,142.478h2.758 M193.638,142.478h0.495"/>
	
		<line fill="none" stroke="#1D1D1B" stroke-width="0.072" stroke-linecap="round" stroke-linejoin="round" stroke-miterlimit="10" x1="159.063" y1="149.125" x2="158.992" y2="149.125"/>
	
		<line fill="none" stroke="#1D1D1B" stroke-width="0.072" stroke-linecap="round" stroke-linejoin="round" stroke-miterlimit="10" x1="170.8" y1="142.478" x2="170.659" y2="142.478"/>
	<path fill="none" stroke="#1E1F1D" stroke-width="0.2" stroke-linecap="round" stroke-linejoin="round" stroke-miterlimit="10" d="
		M145.77,143.68v29.626 M146.972,149.054v24.252 M146.972,149.054v-5.304"/>
	
		<path fill="none" stroke="#1D1D1B" stroke-width="0.072" stroke-linecap="round" stroke-linejoin="round" stroke-miterlimit="10" d="
		M163.305,143.68v29.626 M159.841,143.61v5.374 M159.841,143.61v-1.202 M198.022,143.61v29.202 M197.315,142.478h0.424
		 M163.305,143.68v-1.273 M198.022,143.61v-1.202 M145.558,143.68v29.555"/>
	
		<line fill="none" stroke="#1D1D1B" stroke-width="0.072" stroke-linecap="round" stroke-linejoin="round" stroke-miterlimit="10" x1="147.184" y1="143.68" x2="146.972" y2="143.68"/>
	
		<path fill="none" stroke="#1D1D1B" stroke-width="0.072" stroke-linecap="round" stroke-linejoin="round" stroke-miterlimit="10" d="
		M111.548,142.549h-0.283"/>
	<path fill="none" stroke="#1E1F1D" stroke-width="0.2" stroke-linecap="round" stroke-linejoin="round" stroke-miterlimit="10" d="
		M86.306,150.327h-0.354 M86.659,142.62v7.707 M147.255,142.549v1.131 M86.659,150.327h-0.354"/>
	
		<line fill="none" stroke="#1E1F1D" stroke-width="0.2" stroke-linecap="round" stroke-linejoin="round" stroke-miterlimit="10" x1="86.306" y1="150.327" x2="86.376" y2="173.306"/>
	
		<line fill="none" stroke="#1D1D1B" stroke-width="0.072" stroke-linecap="round" stroke-linejoin="round" stroke-miterlimit="10" x1="71.316" y1="143.822" x2="71.316" y2="143.68"/>
	<path fill="none" stroke="#1E1F1D" stroke-width="0.2" stroke-linecap="round" stroke-linejoin="round" stroke-miterlimit="10" d="
		M85.528,143.822H71.316 M112.962,143.68v29.555 M85.74,150.327h-0.212 M111.548,173.236v-30.687 M71.316,143.68v-1.061"/>
	
		<path fill="none" stroke="#1D1D1B" stroke-width="0.072" stroke-linecap="round" stroke-linejoin="round" stroke-miterlimit="10" d="
		M147.255,143.68L147.255,143.68 M71.316,143.822h-2.404"/>
	<path fill="none" stroke="#1E1F1D" stroke-width="0.2" stroke-linecap="round" stroke-linejoin="round" stroke-miterlimit="10" d="
		M147.184,143.68h-0.141"/>
	
		<line fill="none" stroke="#1E1F1D" stroke-width="0.2" stroke-linecap="round" stroke-linejoin="round" stroke-miterlimit="10" x1="85.952" y1="150.327" x2="85.74" y2="150.327"/>
	
		<line fill="none" stroke="#1D1D1B" stroke-width="0.072" stroke-linecap="round" stroke-linejoin="round" stroke-miterlimit="10" x1="85.74" y1="150.327" x2="85.74" y2="150.327"/>
	
		<line fill="none" stroke="#1D1D1B" stroke-width="0.072" stroke-linecap="round" stroke-linejoin="round" stroke-miterlimit="10" x1="68.841" y1="142.62" x2="71.245" y2="142.62"/>
	
		<line fill="none" stroke="#1E1F1D" stroke-width="0.2" stroke-linecap="round" stroke-linejoin="round" stroke-miterlimit="10" x1="71.245" y1="142.62" x2="86.659" y2="142.62"/>
	
		<path fill="none" stroke="#1D1D1B" stroke-width="0.072" stroke-linecap="round" stroke-linejoin="round" stroke-miterlimit="10" d="
		M85.528,150.256L85.528,150.256 M85.528,150.256L85.528,150.256"/>
	
		<line fill="none" stroke="#1E1F1D" stroke-width="0.2" stroke-linecap="round" stroke-linejoin="round" stroke-miterlimit="10" x1="85.528" y1="150.256" x2="85.528" y2="143.822"/>
	
		<path fill="none" stroke="#1D1D1B" stroke-width="0.072" stroke-linecap="round" stroke-linejoin="round" stroke-miterlimit="10" d="
		M145.77,143.68h-0.212 M85.528,150.327L85.528,150.327 M85.528,150.327L85.528,150.327"/>
	
		<line fill="none" stroke="#1E1F1D" stroke-width="0.2" stroke-linecap="round" stroke-linejoin="round" stroke-miterlimit="10" x1="145.77" y1="143.68" x2="112.962" y2="143.68"/>
	
		<path fill="none" stroke="#1D1D1B" stroke-width="0.072" stroke-linecap="round" stroke-linejoin="round" stroke-miterlimit="10" d="
		M169.74,142.478h0.212"/>
	
		<line fill="none" stroke="#1E1F1D" stroke-width="0.2" stroke-linecap="round" stroke-linejoin="round" stroke-miterlimit="10" x1="111.548" y1="142.549" x2="147.255" y2="142.549"/>
	
		<path fill="none" stroke="#1D1D1B" stroke-width="0.072" stroke-linecap="round" stroke-linejoin="round" stroke-miterlimit="10" d="
		M162.81,172.741h-1.626 M159.134,172.741h1.485 M158.992,149.125h4.101"/>
</g>
<polyline fill="none" stroke="#000000" stroke-width="0.037" stroke-linecap="round" stroke-linejoin="round" stroke-miterlimit="10" points="
	84.962,142.125 84.114,141.842 84.467,140.711 85.386,140.993 84.962,142.125 "/>
<line fill="none" stroke="#000000" stroke-width="0.037" stroke-linecap="round" stroke-linejoin="round" stroke-miterlimit="10" x1="84.679" y1="142.62" x2="84.679" y2="141.842"/>
<polyline fill="none" stroke="#000000" stroke-width="0.037" stroke-linecap="round" stroke-linejoin="round" stroke-miterlimit="10" points="
	84.326,141.913 83.477,142.125 83.195,140.922 84.043,140.711 84.255,141.487 "/>
<line fill="none" stroke="#000000" stroke-width="0.037" stroke-linecap="round" stroke-linejoin="round" stroke-miterlimit="10" x1="83.689" y1="142.62" x2="83.689" y2="141.842"/>
<polyline fill="none" stroke="#000000" stroke-width="0.037" stroke-linecap="round" stroke-linejoin="round" stroke-miterlimit="10" points="
	86.235,142.125 85.457,141.205 86.164,140.64 86.942,141.559 86.235,142.125 "/>
<line fill="none" stroke="#000000" stroke-width="0.037" stroke-linecap="round" stroke-linejoin="round" stroke-miterlimit="10" x1="86.023" y1="142.62" x2="86.023" y2="141.842"/>
<polyline fill="none" stroke="#000000" stroke-width="0.037" stroke-linecap="round" stroke-linejoin="round" stroke-miterlimit="10" points="
	137.639,142.054 137.002,141.418 137.78,140.569 138.487,141.135 137.639,142.054 "/>
<line fill="none" stroke="#000000" stroke-width="0.037" stroke-linecap="round" stroke-linejoin="round" stroke-miterlimit="10" x1="137.568" y1="142.549" x2="137.568" y2="141.771"/>
<polyline fill="none" stroke="#000000" stroke-width="0.037" stroke-linecap="round" stroke-linejoin="round" stroke-miterlimit="10" points="
	140.75,141.982 139.76,141.418 140.184,140.569 141.245,141.205 140.75,141.982 "/>
<line fill="none" stroke="#000000" stroke-width="0.037" stroke-linecap="round" stroke-linejoin="round" stroke-miterlimit="10" x1="140.326" y1="142.549" x2="140.326" y2="141.771"/>
<polyline fill="none" stroke="#000000" stroke-width="0.037" stroke-linecap="round" stroke-linejoin="round" stroke-miterlimit="10" points="
	111.548,141.982 111.194,141.135 112.255,140.64 112.679,141.487 111.548,141.982 "/>
<line fill="none" stroke="#000000" stroke-width="0.037" stroke-linecap="round" stroke-linejoin="round" stroke-miterlimit="10" x1="111.831" y1="142.549" x2="111.831" y2="141.771"/>
<polyline fill="none" stroke="#000000" stroke-width="0.037" stroke-linecap="round" stroke-linejoin="round" stroke-miterlimit="10" points="
	114.73,142.054 113.952,141.135 114.659,140.498 115.437,141.487 114.73,142.054 "/>
<line fill="none" stroke="#000000" stroke-width="0.037" stroke-linecap="round" stroke-linejoin="round" stroke-miterlimit="10" x1="114.588" y1="142.549" x2="114.588" y2="141.771"/>
<polyline fill="none" stroke="#000000" stroke-width="0.037" stroke-linecap="round" stroke-linejoin="round" stroke-miterlimit="10" points="
	119.114,141.982 117.982,141.559 118.336,140.711 119.467,141.135 119.114,141.982 "/>
<line fill="none" stroke="#000000" stroke-width="0.037" stroke-linecap="round" stroke-linejoin="round" stroke-miterlimit="10" x1="118.619" y1="142.549" x2="118.619" y2="141.771"/>
<polyline fill="none" stroke="#000000" stroke-width="0.037" stroke-linecap="round" stroke-linejoin="round" stroke-miterlimit="10" points="
	123.922,142.054 123.215,141.135 123.922,140.569 124.629,141.487 123.922,142.054 "/>
<line fill="none" stroke="#000000" stroke-width="0.037" stroke-linecap="round" stroke-linejoin="round" stroke-miterlimit="10" x1="123.78" y1="142.549" x2="123.78" y2="141.771"/>
<polyline fill="none" stroke="#000000" stroke-width="0.037" stroke-linecap="round" stroke-linejoin="round" stroke-miterlimit="10" points="
	142.942,141.982 142.517,141.135 143.578,140.64 144.002,141.418 142.942,141.982 "/>
<line fill="none" stroke="#000000" stroke-width="0.037" stroke-linecap="round" stroke-linejoin="round" stroke-miterlimit="10" x1="143.154" y1="142.549" x2="143.154" y2="141.771"/>
<polyline fill="none" stroke="#000000" stroke-width="0.037" stroke-linecap="round" stroke-linejoin="round" stroke-miterlimit="10" points="
	146.053,142.054 145.275,141.135 145.982,140.569 146.76,141.487 146.053,142.054 "/>
<line fill="none" stroke="#000000" stroke-width="0.037" stroke-linecap="round" stroke-linejoin="round" stroke-miterlimit="10" x1="145.911" y1="142.549" x2="145.911" y2="141.771"/>
<g enable-background="new    ">
	<path d="M424.497,212.358c-0.039-0.021-0.051-0.061-0.03-0.098l0.955-1.77c0.213-0.396,0.164-0.775-0.217-0.98
		c-0.37-0.2-0.735-0.043-0.948,0.352l-0.955,1.77c-0.021,0.038-0.059,0.05-0.098,0.029l-0.585-0.316
		c-0.039-0.021-0.05-0.059-0.029-0.098l1.587-2.94c0.021-0.038,0.059-0.05,0.098-0.029l0.585,0.315
		c0.039,0.021,0.05,0.061,0.029,0.099l-0.121,0.223l0.007,0.004c0.237-0.119,0.594-0.141,1.001,0.079
		c0.655,0.354,0.802,1.057,0.448,1.713l-1.044,1.936c-0.021,0.037-0.06,0.049-0.098,0.029L424.497,212.358z"/>
</g>
<line fill="none" stroke="#000000" stroke-width="0.5" stroke-miterlimit="10" x1="498.833" y1="208.312" x2="498.833" y2="212.271"/>
<line fill="none" stroke="#000000" stroke-width="0.2" stroke-miterlimit="10" x1="472.318" y1="208.312" x2="472.318" y2="212.271"/>
<line fill="none" stroke="#000000" stroke-width="0.2" stroke-miterlimit="10" x1="459.096" y1="208.312" x2="459.096" y2="212.271"/>
<line fill="none" stroke="#000000" stroke-width="0.2" stroke-miterlimit="10" x1="485.469" y1="208.312" x2="485.469" y2="212.271"/>
<line fill="none" stroke="#000000" stroke-width="0.5" stroke-miterlimit="10" x1="445.803" y1="208.312" x2="445.803" y2="212.271"/>
<line fill="none" stroke="#000000" stroke-width="0.5" stroke-miterlimit="10" x1="432.439" y1="208.312" x2="432.439" y2="212.271"/>
<g>
	<path d="M499.336,206.46l0.481-0.119c0.033-0.006,0.057,0.012,0.067,0.045c0.074,0.216,0.249,0.368,0.532,0.368
		c0.221,0,0.408-0.113,0.476-0.317c0.04-0.102,0.051-0.226,0.051-0.424c0-0.21-0.017-0.329-0.051-0.425
		c-0.073-0.227-0.261-0.317-0.481-0.317c-0.255,0-0.407,0.136-0.47,0.267c-0.017,0.039-0.028,0.057-0.067,0.057h-0.476
		c-0.034,0-0.057-0.022-0.057-0.057v-2.072c0-0.034,0.022-0.057,0.057-0.057h2.049c0.034,0,0.057,0.022,0.057,0.057v0.453
		c0,0.034-0.022,0.057-0.057,0.057h-1.488c-0.023,0-0.034,0.011-0.034,0.034v0.866h0.017c0.091-0.074,0.289-0.17,0.566-0.17
		c0.492,0,0.854,0.231,0.99,0.65c0.052,0.164,0.085,0.346,0.085,0.657c0,0.255-0.028,0.452-0.079,0.605
		c-0.147,0.447-0.577,0.702-1.087,0.702c-0.595,0-1.041-0.317-1.126-0.793C499.285,206.499,499.302,206.471,499.336,206.46z"/>
	<path d="M505.746,207.258c-0.033,0-0.057-0.022-0.057-0.057v-1.573c0-0.352-0.175-0.595-0.515-0.595
		c-0.328,0-0.521,0.243-0.521,0.595v1.573c0,0.034-0.022,0.057-0.056,0.057h-0.521c-0.034,0-0.057-0.022-0.057-0.057v-1.573
		c0-0.352-0.175-0.595-0.515-0.595c-0.328,0-0.521,0.243-0.521,0.595v1.573c0,0.034-0.022,0.057-0.057,0.057h-0.521
		c-0.034,0-0.057-0.022-0.057-0.057v-2.615c0-0.034,0.022-0.057,0.057-0.057h0.521c0.034,0,0.057,0.022,0.057,0.057v0.198h0.006
		c0.119-0.17,0.356-0.317,0.719-0.317c0.323,0,0.584,0.13,0.748,0.362h0.005c0.21-0.227,0.481-0.362,0.872-0.362
		c0.634,0,0.991,0.431,0.991,1.014v1.721c0,0.034-0.023,0.057-0.057,0.057L505.746,207.258L505.746,207.258z"/>
</g>
<g>
	<path d="M447.201,204.167h-0.012l-0.589,0.413c-0.033,0.022-0.062,0.012-0.062-0.034v-0.577c0-0.034,0.011-0.057,0.039-0.079
		l0.617-0.447c0.028-0.022,0.057-0.034,0.102-0.034h0.481c0.034,0,0.057,0.022,0.057,0.057v3.736c0,0.034-0.022,0.057-0.057,0.057
		h-0.521c-0.034,0-0.057-0.022-0.057-0.057v-3.035H447.201z"/>
	<path d="M452.717,207.258c-0.033,0-0.057-0.022-0.057-0.057v-1.573c0-0.352-0.175-0.595-0.515-0.595
		c-0.328,0-0.521,0.243-0.521,0.595v1.573c0,0.034-0.022,0.057-0.056,0.057h-0.521c-0.034,0-0.057-0.022-0.057-0.057v-1.573
		c0-0.352-0.175-0.595-0.515-0.595c-0.328,0-0.521,0.243-0.521,0.595v1.573c0,0.034-0.022,0.057-0.057,0.057h-0.521
		c-0.034,0-0.057-0.022-0.057-0.057v-2.615c0-0.034,0.022-0.057,0.057-0.057h0.521c0.034,0,0.057,0.022,0.057,0.057v0.198h0.006
		c0.119-0.17,0.356-0.317,0.719-0.317c0.323,0,0.584,0.13,0.748,0.362h0.005c0.21-0.227,0.481-0.362,0.872-0.362
		c0.634,0,0.991,0.431,0.991,1.014v1.721c0,0.034-0.023,0.057-0.057,0.057L452.717,207.258L452.717,207.258z"/>
</g>
<g>
	<path d="M432.817,205.333c0-0.895,0.028-1.075,0.08-1.234c0.152-0.48,0.521-0.753,1.092-0.753c0.572,0,0.94,0.272,1.099,0.753
		c0.051,0.159,0.079,0.34,0.079,1.234s-0.028,1.075-0.079,1.234c-0.158,0.481-0.526,0.753-1.099,0.753
		c-0.571,0-0.939-0.271-1.092-0.753C432.845,206.408,432.817,206.228,432.817,205.333z M433.989,206.754
		c0.238,0,0.402-0.102,0.476-0.306c0.04-0.119,0.051-0.249,0.051-1.115s-0.011-0.996-0.051-1.115
		c-0.073-0.204-0.237-0.306-0.476-0.306c-0.237,0-0.396,0.102-0.47,0.306c-0.039,0.119-0.051,0.249-0.051,1.115
		s0.012,0.996,0.051,1.115C433.593,206.653,433.752,206.754,433.989,206.754z"/>
</g>
</svg>
